<?xml version="1.0" standalone="no"?>
<!DOCTYPE svg PUBLIC "-//W3C//DTD SVG 20010904//EN"
 "http://www.w3.org/TR/2001/REC-SVG-20010904/DTD/svg10.dtd">
<svg version="1.0" xmlns="http://www.w3.org/2000/svg"
 width="900.000000pt" height="1200.000000pt" viewBox="0 0 900.000000 1200.000000"
 preserveAspectRatio="xMidYMid meet">
<metadata>
Created by potrace 1.15, written by Peter Selinger 2001-2017
</metadata>
<g transform="translate(0.000000,1200.000000) scale(0.100000,-0.100000)"
fill="#000000" stroke="none">
<path d="M5164 11843 c-22 -46 -26 -210 -6 -288 31 -123 40 -149 60 -166 27
-21 27 -25 1 -32 -15 -4 -20 -11 -15 -22 3 -9 2 -13 -4 -10 -6 3 -10 -3 -10
-14 0 -11 -9 -25 -20 -31 -11 -6 -20 -17 -20 -25 0 -8 -5 -15 -11 -15 -7 0 -9
-9 -6 -22 8 -30 -29 -48 -94 -48 -36 0 -55 -6 -78 -26 -17 -14 -35 -23 -41
-19 -5 3 -10 -2 -10 -12 0 -13 -13 -22 -45 -32 -25 -7 -43 -17 -40 -21 6 -10
85 17 107 37 24 22 60 13 70 -19 7 -21 4 -35 -15 -65 -13 -21 -25 -41 -25 -46
-1 -4 -9 -19 -18 -32 -20 -31 -20 -31 31 -39 l40 -7 35 76 c41 89 52 101 103
110 44 9 59 23 16 17 -18 -3 -29 0 -29 7 0 16 62 41 99 41 56 0 49 27 -9 34
-39 4 -44 9 -36 39 4 17 22 32 63 51 42 19 50 25 28 22 l-30 -4 22 17 c19 16
96 32 202 44 73 8 205 -45 382 -153 107 -66 208 -148 215 -174 3 -12 17 -30
32 -38 34 -20 122 -107 122 -120 0 -5 -24 4 -54 21 -29 17 -59 31 -65 31 -25
0 -7 -17 51 -45 34 -16 85 -51 113 -77 29 -27 56 -48 60 -48 13 0 -3 96 -21
132 -9 18 -28 46 -43 62 -18 20 -21 27 -9 23 13 -5 15 -2 11 11 -6 15 -5 15
10 3 15 -11 17 -11 17 2 0 15 -44 49 -69 53 -8 2 -26 11 -40 22 -46 33 -51 35
-44 15 5 -12 -7 -6 -36 17 -80 65 -157 117 -244 164 -88 48 -122 74 -45 35 22
-11 64 -28 92 -36 61 -18 168 -71 245 -121 79 -51 191 -141 191 -152 0 -6 7
-10 15 -10 10 0 15 10 15 30 0 23 -12 44 -45 79 -25 26 -45 55 -45 64 0 9 -13
25 -29 36 -34 25 -42 26 -35 7 3 -8 -31 4 -83 30 -134 66 -410 159 -517 174
-39 5 -100 16 -136 24 -36 8 -107 20 -158 27 l-94 12 7 26 c23 92 11 124 -22
56 -23 -49 -47 -47 -39 3 15 99 26 251 21 287 -9 65 -19 72 -41 28z"/>
<path d="M2295 11211 l-109 -27 -43 -79 c-23 -44 -46 -81 -52 -83 -5 -2 -7
-10 -4 -18 7 -20 41 -18 47 4 3 9 39 50 78 89 l73 72 110 14 110 14 60 -29
c33 -17 55 -25 50 -19 -20 21 -166 91 -188 90 -12 -1 -71 -13 -132 -28z"/>
<path d="M2449 11116 c-2 -2 -21 -6 -42 -9 -39 -5 -67 -22 -67 -41 0 -7 3 -6
8 2 5 7 16 10 25 6 10 -3 17 -1 17 5 0 6 8 11 18 11 15 0 15 -2 2 -11 -11 -8
-8 -9 15 -4 36 8 32 8 75 6 37 -1 34 -10 -15 -35 -30 -16 -30 -16 -5 -17 14
-1 33 -1 43 0 11 2 17 -5 17 -18 0 -35 22 -71 44 -71 20 0 20 0 0 -15 -18 -13
-16 -14 26 -16 25 -1 35 -4 22 -6 -30 -6 -18 -23 16 -23 24 0 27 -4 28 -39 1
-22 9 -50 17 -62 15 -20 14 -23 -6 -40 l-22 -18 21 -1 c23 0 48 -23 37 -33 -3
-4 12 -7 35 -7 41 0 52 -14 27 -32 -5 -4 0 -8 13 -8 28 0 29 -16 0 -23 l-21
-6 24 -19 24 -20 -45 -13 -45 -13 60 -6 c33 -3 69 -11 80 -17 11 -7 16 -13 11
-13 -6 0 6 -12 25 -26 l34 -26 -30 6 c-49 11 -59 9 -115 -26 -97 -59 -156
-146 -145 -215 7 -46 83 -158 113 -167 9 -2 29 -7 43 -10 14 -3 53 -36 88 -73
34 -38 87 -93 118 -124 l55 -57 -20 -38 c-23 -45 -35 -96 -34 -139 1 -16 -15
-88 -35 -160 -19 -71 -55 -209 -79 -305 -72 -285 -125 -431 -220 -606 -80
-147 -85 -160 -100 -256 -8 -55 -13 -103 -10 -105 2 -3 13 12 24 34 10 21 56
110 102 197 55 106 78 157 66 153 -12 -5 -16 -2 -14 11 2 9 -3 16 -9 14 -18
-3 -17 0 25 86 21 42 49 111 61 152 12 41 27 86 33 100 6 14 12 30 14 35 1 6
12 37 24 70 23 62 47 100 37 58 -3 -13 -1 -26 4 -29 14 -8 11 -47 -6 -88 -9
-20 -13 -41 -10 -45 2 -5 -2 -14 -10 -21 -8 -7 -15 -18 -15 -25 0 -6 -9 -20
-19 -29 -12 -11 -17 -25 -13 -38 3 -13 1 -19 -5 -15 -6 4 -14 0 -17 -9 -5 -12
-1 -14 17 -9 17 5 13 -1 -15 -25 -21 -17 -38 -39 -38 -48 0 -11 3 -13 8 -6 11
17 48 34 72 34 21 0 21 0 -4 -30 -45 -54 -46 -112 -3 -200 16 -31 29 -46 46
-48 19 -3 22 0 17 16 -5 14 3 26 31 48 l38 29 -23 -32 -22 -32 21 -6 c24 -8
21 -9 -88 -56 -18 -8 -33 -18 -33 -23 0 -5 -26 -32 -57 -60 -32 -28 -80 -73
-108 -100 -67 -65 -96 -87 -106 -80 -5 3 -9 1 -9 -4 0 -5 -9 -12 -20 -15 -21
-5 -42 -47 -66 -127 l-14 -45 6 60 c17 163 24 194 56 276 l30 76 -22 44 c-12
24 -28 51 -36 59 -11 13 -10 21 8 48 23 36 52 47 106 38 36 -5 39 -4 55 32 17
36 17 37 -4 55 -14 11 -38 17 -70 17 -44 0 -48 -2 -38 -18 9 -14 2 -26 -42
-70 -37 -37 -55 -49 -64 -42 -8 7 -19 2 -35 -15 l-23 -24 40 -44 c52 -57 59
-95 33 -178 -12 -35 -48 -152 -81 -259 -71 -226 -50 -198 -309 -433 -191 -173
-220 -203 -341 -347 -98 -118 -279 -385 -279 -412 0 -20 -75 -315 -89 -348 -5
-14 -10 -20 -11 -15 -1 6 -5 1 -10 -10 -7 -17 -9 -16 -9 9 -1 42 20 106 36
106 7 0 13 6 13 14 0 7 3 29 6 47 5 33 5 33 -11 14 -19 -22 -20 -31 5 87 10
53 34 102 85 182 19 30 31 56 28 60 -16 16 -46 3 -80 -35 -21 -23 -50 -54 -66
-70 -15 -17 -27 -34 -27 -40 0 -6 -9 -8 -21 -4 -15 5 -19 4 -15 -4 4 -6 2 -11
-3 -11 -6 0 -11 -7 -11 -17 0 -9 -3 -13 -7 -10 -9 10 -33 -13 -33 -32 0 -9
-18 -37 -40 -61 -22 -24 -45 -59 -51 -77 -6 -18 -17 -33 -24 -33 -7 0 -16 -6
-18 -12 -3 -8 -6 -6 -6 5 -1 9 10 35 24 57 50 79 15 38 -61 -71 -42 -61 -82
-113 -89 -116 -8 -2 -23 0 -34 6 -12 7 -22 7 -25 2 -4 -5 -3 -11 1 -13 21 -9
64 -91 58 -109 -6 -19 -5 -20 15 -9 33 18 34 6 3 -40 -56 -85 -65 -100 -55
-100 6 0 19 15 30 33 12 17 34 45 51 61 l30 29 6 -26 c4 -14 4 -35 0 -47 -6
-19 -5 -21 13 -11 17 9 24 6 46 -20 30 -35 33 -51 9 -42 -11 4 -14 3 -9 -5 4
-7 2 -12 -3 -12 -6 0 -11 5 -11 10 0 6 -5 10 -10 10 -6 0 -4 -10 4 -22 20 -33
29 -85 16 -93 -6 -4 -30 7 -52 25 l-40 32 7 -46 c4 -25 4 -53 1 -63 -6 -14
-14 -10 -49 24 -57 55 -140 109 -145 95 -2 -6 -10 -8 -18 -5 -24 9 -16 -16 12
-33 14 -9 31 -29 39 -44 14 -28 10 -74 -6 -64 -5 3 -9 1 -9 -5 0 -5 5 -13 10
-16 7 -4 7 -12 2 -18 -10 -14 -10 -27 1 -44 13 -20 -4 -16 -113 28 -56 22
-104 38 -107 36 -6 -7 45 -77 69 -95 10 -7 18 -18 18 -24 0 -6 7 -19 16 -29
21 -23 11 -49 -17 -49 -12 0 -19 -3 -16 -7 4 -3 2 -12 -4 -19 -7 -8 -7 -14 1
-19 5 -3 10 -14 10 -22 0 -27 -58 35 -65 69 -5 19 -12 28 -21 24 -8 -3 -32 17
-61 50 -55 64 -74 55 -48 -22 15 -43 14 -47 -2 -60 -12 -10 -32 -13 -58 -10
-37 5 -42 2 -64 -30 -19 -27 -21 -38 -12 -47 9 -9 14 -9 22 3 8 12 9 9 5 -10
-3 -14 -6 -28 -6 -32 0 -17 -20 -7 -20 10 0 10 -3 13 -8 7 -11 -16 -52 -16
-59 0 -3 8 2 35 11 60 l15 46 -65 30 c-78 34 -81 35 -89 10 -5 -16 -11 -17
-38 -11 -18 4 -40 11 -49 15 -15 6 -26 -11 -68 -96 -51 -105 -62 -152 -35
-163 8 -3 15 -13 15 -23 0 -15 -2 -16 -10 -3 -9 14 -8 -8 5 -92 2 -15 21 -43
42 -63 21 -20 33 -34 26 -31 -20 11 -25 -33 -13 -121 11 -79 14 -86 44 -103
17 -10 45 -28 61 -40 124 -87 205 -132 250 -141 28 -4 68 -14 90 -20 22 -6 53
-11 69 -10 16 0 64 -8 106 -19 46 -12 175 -28 316 -39 286 -24 573 -64 939
-131 220 -41 314 -64 510 -124 285 -89 291 -91 302 -110 12 -21 97 -56 113
-46 15 9 198 -78 234 -111 15 -15 30 -19 53 -16 24 4 45 -3 90 -29 113 -68
158 -109 170 -156 11 -38 52 -108 144 -245 15 -21 30 -54 34 -72 11 -51 152
-190 201 -198 29 -5 40 -2 52 13 12 15 13 15 9 2 -9 -27 35 -49 85 -42 73 10
111 26 136 55 13 16 27 29 31 29 11 0 88 -196 173 -444 88 -258 324 -1068 388
-1334 27 -112 38 -178 32 -185 -6 -8 -3 -45 8 -102 10 -49 26 -162 35 -250 9
-88 23 -196 31 -240 8 -44 14 -93 14 -108 0 -16 6 -35 14 -43 11 -11 12 -21 4
-49 -9 -27 -8 -43 5 -75 8 -22 11 -37 5 -34 -8 5 -9 -20 -6 -81 6 -85 5 -90
-24 -136 -25 -41 -34 -48 -52 -43 -26 6 -51 -18 -42 -41 3 -8 1 -15 -4 -15
-16 0 -22 -45 -12 -84 9 -29 8 -36 -4 -36 -15 0 -55 -20 -64 -32 -12 -16 -56
-25 -83 -17 -16 4 -39 4 -51 -1 -27 -10 -56 -66 -56 -108 0 -17 -4 -33 -9 -36
-8 -5 -6 -105 3 -113 11 -11 331 -21 536 -18 175 3 245 9 313 24 49 11 90 21
91 23 14 21 79 272 95 368 12 69 31 169 43 223 18 80 24 97 37 92 9 -4 20 -7
25 -8 5 -1 19 39 32 88 13 50 36 122 50 162 l26 71 -43 89 c-66 134 -89 156
-81 73 2 -27 2 -50 -1 -50 -6 0 -41 106 -42 125 0 6 -6 16 -12 23 -7 7 -13 23
-13 34 0 12 -23 53 -51 91 -47 65 -50 71 -39 98 11 25 8 39 -24 115 -20 47
-34 90 -31 95 5 7 -16 54 -45 99 -14 22 -88 322 -126 510 l-34 165 0 315 c0
264 -4 357 -25 568 -25 249 -26 252 -65 337 -22 46 -40 86 -40 89 0 2 23 10
51 16 l51 12 -51 52 c-51 51 -59 80 -15 51 25 -16 30 -12 58 42 l16 32 -83 44
c-45 25 -122 65 -172 90 -108 54 -154 107 -179 203 -10 40 -27 74 -46 94 -16
18 -30 41 -30 51 0 10 -4 19 -9 19 -5 0 -8 11 -8 25 -1 21 9 31 48 51 39 19
49 30 49 49 0 14 -4 25 -10 25 -5 0 -10 7 -10 15 0 8 -8 15 -17 15 -13 0 -14
3 -6 8 9 6 10 17 3 41 -5 19 -7 38 -4 42 3 5 -2 6 -12 2 -14 -5 -15 -1 -9 35
5 31 3 42 -6 42 -10 0 -10 3 -1 12 25 25 10 26 -34 1 -33 -19 -51 -23 -62 -17
-16 11 -43 89 -39 114 1 11 -6 14 -30 12 l-33 -3 4 91 c3 67 0 101 -11 128
-10 25 -12 37 -4 40 16 5 13 48 -5 66 -13 14 -14 24 -5 68 10 46 10 53 -9 70
-18 17 -25 38 -21 62 1 4 -2 13 -8 20 -8 10 -16 57 -27 146 -1 13 2 30 8 37 6
8 8 30 4 56 l-7 42 58 -56 c114 -110 755 -647 828 -694 17 -11 35 -20 41 -21
6 -1 25 -5 42 -9 19 -4 33 -2 37 5 6 9 10 9 16 -1 4 -7 11 -11 14 -7 14 13
-237 419 -508 820 -156 232 -246 353 -408 548 -189 229 -236 297 -216 317 3 3
79 -60 169 -139 155 -136 357 -308 460 -391 27 -21 60 -41 75 -43 15 -3 30 -7
35 -10 5 -3 15 0 23 6 8 7 21 10 29 7 15 -6 -10 42 -114 213 -211 349 -543
845 -720 1076 l-105 137 -3 127 c-2 70 1 151 6 181 8 41 7 69 -4 118 -8 35
-13 66 -9 69 3 3 6 -3 7 -14 1 -10 4 45 7 123 5 122 9 145 27 170 13 17 80 60
175 110 138 74 160 82 209 83 51 0 129 -21 158 -43 8 -7 12 -50 12 -152 l0
-143 -55 -41 c-30 -23 -55 -45 -55 -48 0 -4 8 -15 18 -26 12 -15 13 -18 2 -12
-8 4 -1 -7 15 -25 25 -27 26 -31 8 -21 -28 14 -29 4 -6 -44 14 -29 15 -40 5
-56 -9 -14 -9 -25 -2 -39 5 -10 7 -26 4 -34 -3 -9 0 -22 8 -29 8 -8 21 -70 31
-148 10 -74 25 -168 32 -209 8 -41 19 -155 25 -254 11 -175 12 -180 47 -249
61 -122 77 -142 146 -181 36 -20 68 -36 71 -36 3 0 6 12 6 28 l1 27 32 -35
c18 -19 52 -44 74 -55 23 -11 44 -27 46 -36 3 -9 31 -26 63 -38 48 -18 78 -40
154 -115 133 -130 272 -222 483 -320 187 -87 496 -157 687 -157 68 0 79 -2
125 -34 48 -32 127 -61 143 -51 4 2 25 -4 47 -14 55 -26 85 -26 85 1 0 13 6
20 18 18 42 -4 54 1 47 19 -4 9 -9 28 -10 40 -2 13 -7 27 -11 30 -4 4 -5 -1
-1 -10 3 -9 -2 -26 -13 -38 l-19 -21 -16 25 c-25 37 -13 53 53 73 62 18 82 41
82 94 0 42 -20 89 -38 89 -10 0 -73 -14 -142 -32 -119 -30 -135 -31 -325 -32
-182 0 -211 2 -315 26 -181 42 -296 81 -432 147 -385 187 -635 457 -786 846
-52 133 -92 351 -92 494 1 144 52 378 127 576 40 106 112 255 124 255 6 0 7 5
4 10 -3 6 -2 10 3 10 5 0 12 14 16 31 4 20 10 28 17 23 8 -4 9 -3 5 4 -9 15
24 72 42 72 8 0 12 6 8 15 -5 15 45 49 58 40 3 -3 4 -2 1 2 -3 3 0 12 6 20 9
10 15 10 25 2 12 -9 14 -2 14 41 0 46 -2 51 -15 40 -13 -11 -14 -10 -9 6 6 16
3 15 -19 -5 -15 -14 -27 -21 -27 -17 0 9 139 175 163 194 12 10 13 18 4 42 -8
22 -8 35 2 57 29 61 31 184 5 266 -7 21 9 22 30 1 9 -8 16 -13 16 -9 0 3 11
-2 24 -10 24 -16 25 -15 42 20 11 23 20 32 24 25 5 -9 9 -9 14 -1 17 26 -57
100 -138 137 -49 22 -68 26 -118 21 -82 -7 -158 -46 -194 -100 -27 -39 -29
-48 -28 -137 1 -105 21 -169 72 -224 l27 -29 -40 23 c-68 40 -99 70 -122 118
-13 26 -23 43 -23 37 0 -5 -6 -1 -12 9 -17 30 -11 175 11 247 23 74 82 168
138 220 95 90 247 136 406 125 l87 -7 75 74 c67 66 74 77 75 112 1 76 -2 84
-27 74 -17 -6 -23 -4 -28 11 -8 26 -41 26 -57 0 -7 -11 -17 -20 -21 -20 -18 0
-39 -31 -53 -80 -15 -51 -39 -66 -51 -32 -4 9 -17 30 -30 45 -13 16 -26 47
-29 69 -4 22 -13 42 -20 45 -8 3 -14 11 -14 17 0 7 -39 46 -87 87 -121 102
-133 112 -139 107 -5 -5 130 -140 175 -176 25 -20 57 -102 39 -102 -5 0 -24
11 -41 24 -51 38 -89 54 -191 81 -61 15 -104 22 -117 16 -20 -7 -19 -9 17 -31
22 -13 58 -34 82 -48 24 -13 56 -38 72 -55 31 -34 86 -127 75 -127 -17 0 -264
126 -295 150 -42 33 -70 43 -90 30 -12 -7 -11 -13 10 -35 13 -14 46 -39 72
-57 27 -17 55 -43 63 -59 l15 -28 -52 35 c-52 33 -78 42 -78 26 0 -5 11 -15
25 -22 22 -12 24 -15 10 -23 -14 -8 -12 -12 17 -32 19 -12 50 -50 70 -84 37
-62 39 -85 3 -32 -10 16 -37 40 -58 53 -21 13 -45 29 -53 37 -9 8 -26 11 -44
7 -17 -3 -30 -1 -30 3 0 9 -44 22 -82 26 -10 1 -18 -5 -18 -14 -1 -14 -2 -13
-11 2 -13 22 -72 47 -110 47 -16 0 -29 4 -29 9 0 5 -14 12 -30 16 -17 4 -27
11 -24 17 4 6 -2 8 -16 3 -22 -7 -95 10 -114 27 -6 4 -18 8 -28 8 -18 0 -55
18 -113 54 -44 28 -204 186 -221 219 -19 35 -90 67 -150 67 -43 0 -43 0 -32
25 14 32 7 39 -40 38 -20 -1 -46 4 -57 10 -19 9 -19 9 -5 -8 13 -17 13 -18 -1
-13 -13 5 -16 2 -11 -14 5 -19 4 -19 -27 -4 -33 17 -40 31 -18 39 9 3 9 7 -2
20 -17 22 -24 21 -52 -2 l-24 -19 38 -22 c20 -12 37 -26 37 -31 0 -5 -13 -15
-29 -24 -28 -14 -34 -13 -103 16 -40 17 -100 47 -132 67 -65 39 -65 34 5 85
22 16 22 17 2 7 -16 -7 -23 -7 -23 0 0 5 6 10 13 10 7 0 3 8 -8 17 -18 14 -19
15 -1 9 16 -5 17 -4 6 9 -15 18 -7 19 21 4 16 -8 29 -4 70 22 27 17 48 33 47
34 -6 5 -365 114 -430 130 -86 22 -99 37 -67 71 l24 26 -30 24 c-16 13 -34 24
-40 24 -5 0 -33 -42 -62 -93 -43 -75 -101 -165 -78 -120 7 15 -15 93 -27 93
-4 0 -8 -5 -8 -12 0 -6 -3 -8 -6 -5 -4 4 1 28 11 54 12 31 14 48 7 51 -5 1
-60 34 -121 72 -61 38 -111 64 -111 59 0 -6 14 -18 31 -27 79 -44 101 -60 92
-65 -5 -3 -39 12 -77 34 -76 44 -90 48 -58 19 27 -25 28 -34 5 -26 -12 4 -9
-1 7 -15 14 -12 21 -20 15 -17 -75 33 -155 74 -174 89 -13 11 -37 19 -53 19
-17 0 -27 4 -23 10 6 9 -76 15 -86 6z m1566 -725 c3 -6 -16 -12 -42 -16 -116
-15 -122 -19 -33 -26 93 -6 268 -62 298 -94 16 -17 16 -17 -13 -12 -16 4 -41
9 -55 13 -14 3 -7 -3 17 -16 48 -25 74 -50 52 -50 -8 -1 21 -12 64 -27 43 -14
76 -28 73 -30 -2 -3 -51 4 -108 16 -130 25 -248 36 -248 23 0 -10 127 -102
184 -134 49 -27 71 -22 106 22 18 22 40 40 51 40 18 0 16 -4 -12 -40 -18 -22
-30 -41 -28 -43 2 -2 31 -11 64 -21 77 -23 154 -63 162 -82 9 -24 -16 -42 -75
-54 -99 -20 -96 -17 -68 -51 52 -61 41 -105 -38 -154 -48 -29 -53 -30 -165
-30 -64 0 -128 4 -143 8 -22 6 -28 4 -28 -8 0 -16 14 -18 88 -15 24 1 42 -3
42 -9 0 -6 5 -11 11 -11 5 0 7 5 3 11 -5 8 -1 8 14 0 25 -13 72 -14 92 -2 24
16 33 0 11 -20 -11 -10 -24 -19 -29 -19 -5 0 -22 -6 -38 -14 -81 -40 -159 -49
-139 -16 3 6 -1 10 -9 10 -16 0 -22 25 -8 33 4 2 1 2 -7 0 -8 -2 -30 13 -49
34 -28 31 -33 34 -27 14 7 -23 6 -23 -31 -16 -21 4 -57 20 -78 36 -22 16 -46
29 -53 29 -7 0 -13 10 -13 23 0 13 -7 32 -15 43 -8 10 -14 24 -15 29 0 6 4 4
9 -4 7 -11 13 -8 26 13 17 26 17 28 -3 49 -12 13 -25 38 -28 57 -6 33 -60 97
-71 86 -5 -5 9 -119 29 -223 5 -29 15 -53 21 -53 8 0 7 -3 -2 -9 -9 -6 -11
-18 -8 -33 3 -13 2 -30 -4 -38 -8 -13 -13 -11 -31 10 -14 16 -19 19 -15 7 10
-27 -26 -5 -48 30 -10 15 -24 31 -30 35 -10 6 -10 16 1 47 21 60 20 94 -7 266
-7 44 -19 87 -27 95 -12 13 -13 8 -8 -45 13 -126 18 -215 12 -215 -3 0 -23 7
-45 16 -42 16 -55 38 -67 109 -20 120 -24 133 -40 139 -11 4 -13 13 -8 28 6
20 5 21 -8 10 -19 -15 -85 -19 -98 -6 -4 5 -11 26 -15 46 -6 31 -3 41 18 62
l26 26 -52 -1 c-35 -1 -69 6 -100 20 -26 12 -52 19 -57 16 -5 -3 -11 -1 -14 4
-14 23 39 19 155 -10 68 -17 126 -33 129 -36 3 -3 -7 -3 -22 1 -17 4 -28 2
-28 -4 0 -5 8 -10 19 -10 10 0 45 -3 78 -6 l60 -7 11 31 c8 22 19 33 39 38 50
11 49 14 -1 8 -29 -3 -46 -2 -42 4 9 15 192 54 316 67 153 16 158 16 165 6z
m566 -387 c7 -9 23 -20 35 -25 17 -6 28 -28 48 -92 14 -47 26 -90 26 -96 0
-17 25 -13 92 14 34 14 64 25 66 25 9 0 -43 -35 -73 -50 -35 -18 -55 -35 -55
-48 0 -13 -73 -68 -85 -64 -5 2 -7 0 -3 -4 15 -14 -46 -54 -82 -54 -22 0 -30
-3 -22 -8 9 -6 5 -12 -15 -23 -16 -7 -53 -35 -84 -61 -52 -45 -78 -60 -65 -39
7 11 -38 23 -58 15 -13 -5 -14 -9 -4 -21 10 -12 9 -18 -6 -29 -25 -18 -117
-36 -188 -38 -31 0 -54 -5 -50 -10 3 -5 -3 -6 -13 -2 -11 4 -32 1 -50 -8 -39
-19 -68 -30 -77 -28 -4 1 -5 -4 -2 -12 3 -7 -3 -16 -12 -20 -21 -8 -24 -5 -18
20 12 47 198 124 392 165 54 11 164 75 285 167 47 36 47 37 41 82 -5 41 -39
200 -50 243 -7 21 9 22 27 1z m-1230 -266 c45 -25 50 -37 13 -30 -19 3 -25 1
-20 -7 4 -6 17 -11 29 -11 36 0 51 -17 62 -67 12 -50 2 -103 -18 -103 -6 0 -7
-3 -4 -6 4 -4 13 -1 22 6 8 7 15 8 15 3 0 -5 -11 -15 -24 -22 -21 -12 -30 -10
-75 13 l-52 26 -39 -36 c-21 -20 -46 -52 -55 -72 -10 -21 -55 -113 -102 -207
-70 -141 -83 -176 -81 -210 3 -38 5 -40 40 -43 88 -7 216 137 296 336 16 39
32 69 35 65 19 -18 -43 -175 -98 -248 -56 -74 -148 -152 -198 -167 -29 -9 -43
-21 -57 -49 -11 -20 -26 -39 -35 -43 -9 -3 -14 -10 -11 -15 8 -12 -53 -101
-69 -101 -23 0 -26 16 -7 41 10 13 36 53 57 88 35 58 37 66 27 96 -18 48 -15
73 19 160 55 144 148 305 222 382 47 49 46 58 -22 135 -22 25 -41 49 -41 52 0
3 12 17 27 31 35 32 91 33 144 3z m-216 -1788 c3 -5 16 -10 28 -10 20 0 22 -5
21 -47 -1 -27 2 -53 7 -59 6 -7 4 -16 -6 -24 -19 -16 -19 -30 0 -30 8 0 15 -7
15 -15 0 -8 -3 -14 -7 -14 -20 3 -23 -2 -9 -17 11 -10 14 -24 10 -42 -10 -41
-25 -54 -56 -50 -27 4 -37 -5 -18 -17 5 -3 6 -13 3 -22 -5 -12 -2 -15 8 -11
12 5 14 -2 11 -31 -3 -36 -3 -36 15 -15 22 27 82 58 91 48 4 -4 1 -9 -6 -11
-18 -7 -52 -78 -52 -110 0 -15 7 -46 14 -68 17 -48 24 -35 28 50 2 43 7 60 17
60 17 0 19 -177 2 -183 -6 -2 -11 -8 -11 -13 0 -12 37 -12 45 1 3 6 2 10 -3
10 -5 0 -7 11 -4 25 5 30 22 33 22 4 0 -13 8 -23 20 -26 20 -5 20 -6 3 -18
-10 -7 -42 -20 -72 -29 -50 -15 -55 -15 -67 2 -31 39 -75 144 -77 184 -1 24
-10 52 -19 62 -20 22 -21 26 -9 44 6 10 10 5 14 -17 8 -40 26 -40 25 -1 -1 33
-41 75 -63 66 -7 -2 -17 11 -23 32 -11 36 -8 57 9 47 5 -4 9 -1 9 4 0 6 -4 11
-10 11 -5 0 -10 8 -10 18 0 15 2 15 11 2 8 -11 9 -5 4 23 -4 24 -2 37 5 37 7
0 9 12 5 33 -4 25 1 43 25 80 30 47 43 56 55 37z m608 -104 c65 -28 130 -112
191 -246 31 -69 56 -129 56 -135 -1 -16 -48 -65 -63 -65 -7 0 -47 12 -88 26
-41 14 -95 26 -121 26 -47 0 -48 1 -82 57 -19 31 -42 84 -51 118 -17 61 -17
61 6 95 46 65 104 137 112 137 4 1 22 -5 40 -13z m-768 -241 c-9 -66 -20 -129
-25 -140 -13 -35 -3 -285 14 -360 25 -106 33 -140 61 -270 15 -66 35 -157 46
-203 11 -46 19 -101 17 -123 -1 -23 3 -44 10 -48 7 -4 21 -50 33 -102 41 -187
59 -281 59 -307 0 -27 20 -70 20 -44 0 6 7 12 15 12 8 0 15 -1 15 -3 0 -1 8
-25 19 -53 10 -28 17 -63 15 -77 -1 -15 1 -27 6 -27 5 0 11 -13 15 -30 4 -16
11 -32 16 -35 5 -4 9 -15 9 -26 0 -11 5 -17 10 -14 6 3 10 0 10 -9 0 -8 8 -29
18 -46 13 -25 14 -34 5 -37 -21 -8 -15 -36 23 -119 26 -57 34 -87 30 -109 -3
-16 -1 -37 4 -45 8 -13 10 -13 10 2 0 9 8 19 18 23 11 3 43 23 72 45 64 48 93
51 109 12 6 -15 23 -41 36 -57 l25 -30 -9 27 c-7 19 -7 28 2 31 9 3 9 12 0 40
-6 21 -7 37 -2 37 5 0 9 5 9 11 0 19 30 41 68 50 30 7 39 5 50 -8 11 -16 12
-15 12 1 0 13 5 17 20 13 14 -4 20 0 20 13 0 19 31 34 90 45 19 4 43 9 53 11
22 7 23 -19 2 -36 -9 -7 -13 -20 -10 -28 3 -8 1 -20 -5 -27 -11 -13 -9 -42 3
-62 4 -6 3 -14 -2 -18 -6 -3 -8 -12 -4 -20 3 -9 -1 -15 -8 -15 -11 0 -11 -3 1
-10 9 -6 10 -10 3 -10 -14 0 -10 -49 5 -59 6 -3 -23 -24 -64 -45 -73 -37 -94
-57 -40 -37 21 9 26 8 26 -4 0 -8 -7 -15 -15 -15 -8 0 -15 -6 -15 -13 0 -7
-21 -18 -46 -25 -47 -13 -71 -8 -44 8 32 20 -1 19 -56 -2 -88 -32 -101 -44
-51 -42 77 2 162 16 184 30 12 8 29 14 38 14 8 0 15 4 15 10 0 5 13 16 30 25
33 17 44 19 35 6 -3 -5 -1 -13 5 -16 6 -4 8 -16 4 -27 -6 -20 -3 -21 54 -16
58 6 61 5 71 -21 6 -14 9 -45 7 -69 -1 -30 2 -46 12 -51 10 -6 13 -17 8 -37
-3 -16 -8 -35 -9 -43 -3 -10 -63 -44 -74 -42 -27 6 -42 -3 -48 -29 -7 -32 -3
-31 -169 -69 -61 -14 -94 -17 -106 -11 -10 6 -32 7 -49 4 -30 -6 -30 -6 -86
111 -30 64 -55 121 -55 126 0 29 -122 -10 -155 -49 -24 -29 -47 -34 -75 -17
-6 3 -10 2 -10 -4 0 -16 -63 -8 -81 11 -8 9 -23 32 -34 51 -17 32 -22 35 -80
41 -35 3 -70 4 -78 0 -9 -3 -31 1 -49 9 -18 8 -71 27 -118 42 -201 66 -428
163 -543 233 -48 29 -148 85 -222 123 -151 79 -143 62 -87 174 16 33 53 112
82 175 28 63 59 123 68 133 8 10 62 47 118 83 75 47 109 64 123 59 25 -8 92
40 85 60 -3 8 15 25 48 45 92 55 391 220 399 220 15 0 77 -117 89 -167 7 -32
18 -53 28 -55 10 -3 31 -39 51 -87 18 -45 36 -80 38 -78 5 6 -44 276 -67 367
-11 41 -24 104 -31 140 -6 36 -14 74 -19 85 -29 69 -69 280 -62 329 3 25 1 37
-6 32 -6 -4 -8 2 -4 16 3 12 1 19 -5 15 -5 -3 -15 18 -21 51 -6 31 -18 89 -26
127 -13 61 -13 74 1 100 20 40 31 141 14 131 -9 -6 -11 1 -7 26 3 18 13 74 21
123 8 50 15 93 15 98 0 4 7 7 15 7 8 0 16 6 16 13 1 6 4 3 6 -8 3 -11 -2 -74
-12 -140z m348 -422 c8 -16 20 -46 26 -68 7 -22 16 -49 20 -60 14 -35 32 -117
27 -123 -18 -17 -233 193 -224 219 4 11 101 56 125 58 7 1 19 -11 26 -26z
m974 -115 c176 -210 338 -417 326 -419 -36 -6 -53 -5 -53 3 0 5 -6 8 -12 5 -7
-2 -25 6 -41 19 -15 13 -34 21 -42 18 -8 -3 -21 0 -29 8 -8 7 -71 63 -140 123
-68 61 -127 115 -130 122 -5 12 17 154 29 186 4 9 11 17 15 17 4 0 39 -37 77
-82z m-182 -358 c23 -11 53 -32 66 -47 26 -28 13 -23 -36 13 -34 26 -92 44
-81 25 4 -6 13 -11 20 -11 7 0 13 -7 13 -15 0 -11 -4 -12 -14 -3 -19 16 -25 5
-14 -26 13 -32 41 -35 41 -3 0 18 2 19 10 7 12 -18 13 -40 3 -39 -39 6 -65
-19 -78 -74 -6 -22 -4 -26 9 -21 9 3 16 12 16 19 0 7 7 18 15 25 12 10 18 10
30 0 10 -8 15 -9 15 -2 0 6 -8 16 -17 22 -16 9 -15 10 7 8 17 -2 26 -10 28
-25 4 -27 -34 -113 -50 -113 -6 0 -8 -3 -5 -6 4 -4 18 1 33 11 19 12 29 14 37
6 6 -6 16 -11 21 -11 6 0 3 6 -6 14 -14 10 -16 23 -11 70 3 32 9 52 13 45 5
-6 14 -10 21 -7 10 3 31 -33 70 -117 l56 -122 -28 -34 -27 -34 -73 24 c-41 13
-102 26 -136 29 -63 5 -63 5 -92 52 -30 48 -61 137 -61 173 0 10 21 46 46 79
25 33 50 71 56 84 14 30 47 31 103 4z m-2815 -124 c0 -9 -110 -319 -115 -324
-3 -3 -6 -3 -7 -1 -2 3 -32 35 -68 72 -53 55 -62 69 -50 77 20 12 155 118 194
152 29 25 46 34 46 24z m3342 -658 c45 -55 107 -129 136 -164 52 -62 63 -82
40 -68 -7 4 -10 3 -5 -1 4 -5 0 -17 -9 -27 -13 -14 -20 -15 -30 -7 -8 6 -23 9
-34 6 -11 -3 -18 -1 -15 3 3 5 1 11 -5 15 -5 3 -10 -1 -10 -9 0 -9 -6 -13 -14
-10 -7 3 -13 12 -12 21 0 9 -5 18 -13 21 -10 3 -11 0 -5 -9 6 -11 3 -10 -12 1
-34 27 -43 37 -37 44 4 3 -3 6 -15 6 -12 0 -22 4 -22 9 0 6 -14 18 -31 28 -31
18 -31 18 -23 78 4 33 7 69 7 80 -1 21 16 85 22 85 2 0 41 -46 87 -102z
m-1165 -56 c32 -48 74 -105 93 -127 20 -22 53 -64 74 -93 l38 -52 -39 -15
c-21 -9 -46 -20 -55 -25 -10 -6 -28 -16 -40 -22 -13 -7 -26 -17 -30 -22 -3 -5
-9 8 -13 30 -4 21 -23 100 -42 174 -55 208 -79 328 -53 262 5 -12 35 -61 67
-110z m1480 -2119 c45 -95 79 -243 55 -243 -4 0 -16 26 -27 58 -17 53 -33 89
-73 167 -9 17 -19 37 -23 45 -4 8 -20 39 -34 69 -14 30 -37 66 -51 79 -13 14
-24 30 -24 36 0 5 32 -23 71 -63 50 -52 82 -95 106 -148z m133 -2548 c-20 -53
-60 -98 -138 -156 -66 -49 -85 -59 -106 -53 -14 3 -26 11 -26 18 1 19 110 120
184 170 79 53 100 59 86 21z m5 -818 c16 5 74 -14 76 -26 0 -3 3 -19 5 -35 6
-35 -19 -57 -60 -50 -18 3 -35 -1 -46 -11 -22 -20 -109 -36 -131 -24 -11 6
-19 5 -21 -2 -2 -5 -13 -11 -26 -12 -12 0 -22 -4 -22 -8 0 -4 -17 -6 -37 -4
-21 2 -48 3 -59 4 -30 1 -60 47 -43 67 10 12 9 13 -5 8 -9 -3 -16 -10 -16 -15
0 -5 -7 -9 -15 -9 -17 0 -39 -46 -31 -67 3 -8 -2 -13 -14 -13 -17 0 -20 7 -20
40 0 35 5 43 38 65 22 14 47 27 58 29 10 2 48 13 84 24 185 58 193 59 233 46
20 -7 44 -11 52 -7z"/>
<path d="M3810 10272 c-81 -19 -100 -27 -100 -44 0 -7 14 -8 38 -4 23 4 73 -2
135 -16 53 -12 99 -19 102 -16 3 3 -5 25 -17 49 -28 53 -46 56 -158 31z"/>
<path d="M3578 10238 c-16 -5 -28 -13 -28 -18 0 -16 27 -60 62 -97 31 -35 39
-39 71 -35 23 3 37 0 37 -7 0 -6 -4 -11 -10 -11 -19 0 -10 -19 16 -36 24 -16
29 -16 72 -1 53 19 124 22 153 7 30 -17 23 -50 -22 -91 l-41 -38 39 -19 c35
-18 42 -19 72 -6 42 18 41 18 41 -5 0 -15 14 -23 66 -37 80 -21 87 -15 80 66
-4 52 -8 58 -68 113 -39 37 -94 74 -148 100 l-85 42 -122 0 -122 0 31 32 c16
17 27 36 24 42 -9 13 -81 13 -118 -1z"/>
<path d="M4256 9981 c-3 -4 -3 -31 1 -60 8 -69 25 -81 101 -69 98 15 165 33
169 43 6 18 -191 95 -244 95 -12 0 -24 -4 -27 -9z"/>
<path d="M4197 9823 c-4 -3 -2 -12 4 -20 9 -10 5 -18 -17 -36 -15 -12 -39 -25
-53 -29 -26 -8 -138 0 -155 9 -5 3 -7 0 -4 -8 3 -8 29 -19 59 -25 30 -6 53
-15 52 -21 -1 -6 39 -15 95 -22 109 -13 159 -4 192 31 24 26 26 66 4 75 -9 3
-27 17 -40 29 -18 19 -34 24 -77 24 -29 0 -57 -3 -60 -7z"/>
<path d="M5473 11046 c0 -21 2 -23 18 -13 38 24 81 -18 157 -156 l32 -57 -22
-9 c-28 -10 -86 26 -163 100 l-50 49 -34 -61 c-18 -33 -41 -63 -51 -67 -10 -4
-42 -38 -70 -76 -39 -52 -48 -71 -39 -80 8 -8 13 -8 16 2 16 42 111 162 129
162 6 0 28 -19 47 -43 25 -30 59 -55 112 -80 85 -41 95 -44 95 -22 0 13 7 15
34 10 28 -6 36 -3 45 13 9 16 7 24 -5 37 -15 15 -14 15 10 9 23 -5 26 -3 26
19 0 23 -102 175 -129 191 -6 4 -11 11 -11 15 0 10 92 -26 135 -53 17 -11 40
-25 52 -33 13 -7 26 -25 29 -39 l7 -26 13 32 c17 39 13 46 -34 66 -117 52
-297 124 -321 129 -25 5 -28 3 -28 -19z"/>
<path d="M5886 10889 c3 -6 21 -17 40 -25 22 -9 36 -24 45 -47 10 -28 16 -33
35 -29 25 4 64 -20 116 -72 29 -30 33 -54 44 -248 6 -109 5 -119 -15 -144
l-21 -27 -1 44 c-1 41 -2 42 -9 14 -4 -16 -8 -66 -10 -110 -1 -44 -5 -100 -9
-125 l-7 -45 -6 40 c-4 22 -10 68 -14 103 -4 34 -10 62 -14 62 -4 0 -11 7 -14
16 -12 30 -45 208 -56 293 -5 46 -11 86 -13 88 -5 5 -17 -135 -18 -211 0 -34
-3 -54 -6 -46 -4 8 -12 20 -19 25 -11 9 -54 166 -67 245 -2 14 -5 3 -6 -25 -2
-74 42 -276 78 -356 l20 -44 0 58 c1 31 5 57 9 57 18 0 40 -60 47 -128 l7 -72
-40 -53 c-22 -28 -54 -65 -71 -81 -37 -36 -41 -55 -6 -32 31 20 32 10 3 -21
-12 -13 -17 -23 -11 -23 6 0 39 30 72 66 34 36 64 64 67 62 2 -3 15 -58 29
-124 35 -164 42 -195 50 -202 4 -4 6 20 4 53 -1 33 -2 83 -1 110 2 45 4 48 17
32 13 -18 14 -17 17 5 5 34 -3 109 -11 104 -6 -4 -7 14 -2 63 1 11 4 12 12 4
18 -18 30 -102 19 -124 -8 -15 -7 -19 4 -19 9 0 16 -16 21 -51 5 -37 10 -48
18 -40 7 7 11 71 12 179 0 141 -3 171 -17 192 -14 20 -17 52 -19 169 -2 131
-1 145 17 158 10 7 24 11 31 9 26 -10 -26 72 -64 101 -75 59 -179 129 -230
156 -58 30 -68 32 -57 16z"/>
<path d="M4548 10523 c-13 -3 -18 -14 -18 -42 0 -21 3 -41 7 -45 4 -3 8 -15
10 -26 2 -16 -3 -20 -24 -20 -53 0 -14 -10 98 -25 153 -20 149 -20 143 12 -7
35 -6 35 -51 58 -21 10 -54 31 -73 46 -47 35 -72 46 -92 42z"/>
<path d="M5998 9229 c-10 -5 -18 -14 -18 -19 0 -5 73 -32 163 -60 89 -28 178
-57 197 -64 19 -8 121 -41 225 -74 105 -33 289 -95 410 -137 121 -43 378 -130
570 -195 414 -139 385 -128 385 -147 0 -10 -6 -13 -17 -8 -51 19 -497 170
-548 185 -33 10 -121 38 -195 63 -74 25 -223 73 -330 107 -342 110 -452 147
-596 203 -128 50 -276 101 -297 102 -5 0 -15 -14 -22 -32 -13 -31 -13 -31 12
-27 29 5 153 -32 168 -51 6 -6 16 -10 22 -8 18 6 203 -57 203 -68 0 -6 5 -7
10 -4 15 9 200 -54 206 -70 3 -7 14 -11 24 -8 20 5 95 -17 170 -50 25 -11 52
-21 60 -22 34 -4 186 -58 195 -70 6 -6 16 -10 22 -8 24 8 203 -58 203 -74 0
-12 3 -13 13 -4 20 16 211 -49 215 -73 3 -13 7 -14 17 -6 10 9 37 4 110 -21
54 -18 99 -38 102 -45 2 -7 11 -10 18 -7 8 2 57 -9 108 -26 l94 -32 7 -52 c27
-226 -36 -580 -146 -827 -16 -35 -32 -67 -36 -70 -4 -3 -20 -31 -35 -64 -25
-52 -199 -284 -226 -300 -5 -4 -8 -13 -5 -20 6 -16 -52 -68 -106 -96 -22 -11
-40 -24 -40 -29 0 -5 -14 -14 -30 -20 -17 -5 -43 -19 -58 -29 -15 -11 -53 -28
-84 -38 -32 -10 -58 -23 -58 -29 0 -22 -65 -46 -205 -75 -238 -49 -410 -31
-683 71 -195 73 -282 122 -417 232 -63 52 -223 253 -245 309 -7 18 -21 44 -30
58 -25 36 -56 126 -73 208 -13 62 -13 78 -1 118 7 26 11 50 8 55 -7 12 21 102
83 268 52 138 54 146 42 183 -7 22 -16 41 -20 44 -5 3 -22 -14 -39 -37 -16
-23 -30 -38 -30 -32 0 5 14 52 31 103 43 128 127 305 196 408 32 48 62 93 66
100 6 9 0 11 -25 7 -28 -4 -31 -3 -17 8 21 16 42 107 25 107 -27 0 -81 -63
-112 -132 -19 -40 -34 -69 -34 -63 0 5 -18 -10 -40 -34 -22 -23 -40 -38 -40
-31 0 6 -12 0 -26 -13 -19 -18 -26 -34 -26 -61 0 -20 -4 -36 -9 -36 -5 0 -9
-9 -9 -20 0 -26 -27 -80 -40 -80 -6 0 -9 -3 -9 -7 1 -5 1 -21 0 -37 -1 -25 -3
-27 -18 -15 -15 13 -15 12 -3 -7 10 -17 9 -30 -11 -85 -21 -56 -24 -60 -27
-35 -3 20 -6 25 -12 16 -4 -7 -4 -23 2 -35 7 -15 5 -39 -6 -83 -51 -195 -44
-567 15 -767 24 -85 129 -269 206 -365 98 -120 266 -242 423 -309 252 -106
420 -149 614 -158 122 -5 155 -3 243 16 55 12 134 33 174 46 40 14 78 25 85
25 7 0 18 -17 24 -37 24 -76 94 -243 102 -243 12 0 10 13 -8 55 -9 21 -14 48
-11 60 2 14 -3 26 -15 34 -10 6 -18 16 -18 22 0 5 -9 29 -20 51 -25 53 -25 70
1 86 25 16 22 19 39 -38 7 -25 19 -49 25 -55 6 -5 17 -21 24 -33 7 -13 15 -21
18 -18 4 3 12 1 20 -5 10 -9 13 -8 13 0 0 7 5 9 10 6 6 -4 8 -11 5 -16 -4 -5
-1 -9 6 -9 7 0 9 -11 5 -33 -4 -21 -1 -40 8 -52 14 -19 15 -19 33 -2 11 9 25
17 32 17 19 0 7 59 -29 135 -81 174 -85 193 -45 219 31 20 56 21 49 1 -4 -8
-1 -15 5 -15 6 0 11 -7 11 -15 0 -18 -12 -19 -28 -3 -9 9 -12 9 -12 0 0 -7 3
-12 8 -12 4 0 12 -10 17 -22 6 -13 17 -24 25 -24 32 -3 34 -5 20 -14 -12 -8
-12 -10 5 -10 27 -1 61 -30 68 -58 3 -12 1 -20 -4 -16 -13 8 -10 -8 5 -28 7
-10 21 -18 30 -18 18 0 22 -25 5 -35 -6 -4 -8 -14 -4 -23 4 -10 -3 -23 -17
-34 -21 -15 -23 -25 -24 -110 0 -80 -4 -101 -28 -150 -16 -32 -32 -58 -37 -58
-22 0 -5 -21 31 -40 28 -14 59 -20 109 -20 l69 0 4 42 c5 54 -21 109 -44 95
-8 -6 -23 -7 -32 -4 -18 7 -22 27 -5 27 6 0 46 32 88 70 43 39 83 70 89 70 6
0 41 38 77 85 37 47 75 91 85 98 10 7 43 60 74 118 31 59 65 114 76 124 11 10
20 24 20 32 0 7 11 13 25 13 18 0 31 -11 49 -39 31 -49 72 -81 102 -81 14 0
32 -4 42 -9 47 -25 103 -40 161 -44 l63 -5 -31 32 c-17 17 -53 76 -81 131
l-50 100 48 6 c53 7 202 77 240 112 13 12 33 37 44 57 32 53 136 157 198 198
l55 35 -30 9 c-74 22 -312 -20 -477 -83 -69 -27 -94 -43 -147 -96 -54 -54 -67
-63 -87 -56 l-23 8 39 150 c35 138 59 256 74 362 4 25 0 64 -9 95 -28 104 -28
107 -9 73 l18 -30 8 47 c5 26 5 76 0 110 l-8 63 -14 -42 c-7 -24 -17 -43 -21
-43 -7 0 -6 39 5 203 5 79 21 133 41 141 8 3 15 1 15 -5 0 -6 19 6 42 25 29
25 53 37 77 38 90 4 121 -4 166 -44 102 -89 99 -228 -6 -322 -47 -43 -30 -47
42 -10 110 55 189 162 189 253 0 91 -99 212 -203 248 -36 12 -80 18 -142 17
-127 -1 -166 -25 -221 -133 -30 -60 -42 -135 -50 -311 -3 -63 -7 -124 -9 -135
-2 -11 -27 -51 -55 -90 -28 -38 -46 -71 -40 -73 5 -2 10 -11 10 -19 0 -9 -6
-13 -15 -9 -8 3 -15 1 -15 -4 0 -17 38 -11 44 7 6 14 9 13 20 -9 12 -22 12
-39 0 -105 -19 -111 -75 -313 -87 -313 -6 0 -26 12 -46 27 -20 16 -39 27 -43
25 -5 -1 -8 5 -8 13 0 9 -9 15 -21 15 -12 0 -39 10 -61 22 -30 17 -38 27 -35
43 14 55 100 266 125 305 2 2 7 -2 12 -10 5 -8 14 -16 20 -16 5 -1 15 -2 21
-3 6 0 9 -10 6 -22 -4 -16 -3 -18 8 -9 23 19 26 52 5 57 -11 3 -22 18 -25 34
-4 16 -11 31 -16 34 -5 4 -9 17 -9 30 0 13 -4 27 -10 30 -15 9 -12 85 6 172
10 49 13 97 9 132 -3 34 0 89 9 141 9 47 16 111 16 143 0 44 5 66 20 84 21 27
27 48 10 38 -5 -3 -10 -1 -10 4 0 6 9 11 19 11 33 0 44 56 24 115 -20 56 -36
68 -41 30 -2 -14 -9 -25 -16 -25 -8 0 -16 -14 -20 -31 -9 -48 -7 -69 7 -67 6
2 11 -5 9 -14 -1 -9 2 -19 8 -23 15 -9 12 -25 -4 -25 -8 0 -18 -9 -21 -21 -4
-11 -9 -18 -12 -15 -3 2 -16 1 -29 -4 -14 -6 -26 -6 -29 0 -4 6 -13 5 -24 -2
-15 -9 -177 42 -907 287 -489 164 -897 302 -906 307 -10 5 -18 15 -18 23 0 17
-27 19 -52 4z m1784 -1864 c15 -13 47 -38 73 -54 25 -16 40 -31 33 -33 -10 -4
-10 -10 0 -32 15 -34 3 -60 -30 -61 -16 0 -23 -5 -22 -17 1 -10 -2 -18 -6 -18
-12 0 -23 38 -15 50 3 5 -1 10 -10 10 -17 0 -21 3 -69 45 -16 14 -37 25 -47
25 -25 0 -24 20 0 27 11 3 18 10 15 17 -5 12 31 66 44 66 4 0 19 -11 34 -25z
m-77 -120 c50 -30 64 -62 35 -82 -26 -18 -25 -40 0 -48 11 -3 20 -11 20 -16 0
-6 5 -7 11 -4 14 10 51 -31 47 -53 -2 -13 5 -18 30 -20 28 -3 31 -6 21 -18
-13 -16 -75 -19 -84 -4 -3 6 0 10 7 10 7 0 4 9 -9 22 -24 24 -44 18 -23 -7 7
-8 10 -15 6 -15 -12 0 -194 103 -226 127 -13 11 30 23 65 18 l40 -6 -28 16
-28 16 32 44 c18 25 34 45 36 45 3 0 24 -11 48 -25z m-207 -220 c7 -14 12 -32
12 -40 0 -8 11 -17 25 -21 25 -6 32 -18 16 -28 -4 -3 -16 3 -26 14 -10 11 -24
20 -30 20 -7 0 -15 7 -19 15 -8 21 -22 19 -44 -6 -20 -20 -19 -21 9 -52 16
-17 29 -37 29 -43 0 -24 25 -34 48 -18 19 13 22 13 31 -3 5 -10 11 -36 12 -58
2 -22 14 -55 26 -74 13 -19 21 -36 18 -39 -3 -3 -6 -3 -8 -1 -15 20 -144 176
-153 184 -6 6 -23 27 -38 47 l-28 37 46 46 c25 25 50 45 54 45 5 0 14 -11 20
-25z"/>
<path d="M2170 8840 c0 -10 -9 -24 -20 -30 -26 -14 -26 -47 0 -55 11 -4 18
-10 15 -15 -3 -5 -16 -5 -30 0 -14 5 -26 8 -26 7 -1 -1 -2 -18 -4 -37 -5 -74
-30 -85 -82 -38 -36 34 -48 18 -61 -80 -7 -49 -25 -156 -41 -238 -16 -82 -28
-150 -27 -152 2 -1 61 69 131 155 70 87 141 169 156 183 22 19 26 29 19 42 -7
11 -5 27 4 49 9 20 11 40 6 49 -12 22 11 89 32 96 26 8 22 15 -22 52 -45 37
-50 39 -50 12z"/>
<path d="M8924 8560 c16 -80 18 -142 5 -207 -7 -37 -12 -74 -10 -82 1 -7 -2
-10 -7 -7 -6 3 -15 -8 -21 -24 -8 -26 -7 -30 7 -31 14 0 13 -2 -3 -9 -20 -8
-20 -9 1 -9 14 -1 27 12 42 38 61 107 80 247 34 239 -12 -2 -19 11 -28 55 -6
32 -15 61 -19 65 -4 4 -5 -9 -1 -28z"/>
<path d="M2783 8509 c-6 -8 -23 -39 -38 -69 -15 -30 -36 -67 -46 -82 -53 -74
-102 -178 -85 -178 9 0 246 233 246 242 0 6 -10 23 -22 38 -13 15 -28 35 -33
45 -9 14 -12 15 -22 4z"/>
<path d="M1788 7983 c-19 -5 -25 -23 -8 -23 20 0 9 -23 -37 -75 -42 -47 -49
-51 -59 -37 -12 16 -14 15 -28 -3 -23 -30 -19 -46 21 -87 56 -57 53 -96 -30
-351 -67 -209 -76 -244 -56 -232 5 4 15 -7 22 -24 6 -17 14 -31 17 -31 6 0 70
82 85 110 8 13 7 13 -9 1 -15 -13 -19 -13 -27 0 -11 17 121 149 229 228 40 29
72 56 72 60 0 9 -66 41 -84 41 -8 0 -19 7 -26 15 -11 13 -6 15 34 15 42 0 46
2 46 24 0 22 -3 23 -40 16 -22 -4 -40 -4 -40 0 0 17 49 50 92 60 l47 12 -5 72
c-11 157 -97 240 -216 209z m106 -127 c20 -18 36 -43 36 -55 0 -23 25 -29 33
-8 10 26 29 -10 22 -42 -7 -34 -27 -40 -51 -16 -18 17 -51 7 -101 -31 l-32
-25 -15 36 c-9 20 -25 49 -36 65 -26 37 -26 43 11 79 43 43 86 42 133 -3z"/>
</g>
</svg>
